<svg xmlns="http://www.w3.org/2000/svg" width="742.21" height="239.85" viewBox="0 0 742.21 239.85"><defs><style>.cls-1{fill:#fff;}</style></defs><title>Asset 2</title><g id="Layer_2" data-name="Layer 2"><g id="Layer_1-2" data-name="Layer 1"><path class="cls-1" d="M190.22,79.87h21.59c2.58,1.37,2.16,3.67,2.16,5.8,0,14.46,0,28.92,0,43.67h41.88c.78-16.38-.54-32.75.73-49.3h23.53c2.37,3.79,2.6,118.68.12,123.36H258.1c-2.41-1.19-2-3.49-2-5.63,0-14.81,0-29.61,0-44.78h-42v50c-8.2,1.63-16.07.41-23.21.82-2.81-1.45-2.74-3.47-2.74-5.51q0-56.46,0-112.92C188.15,83.52,187.9,81.62,190.22,79.87Z"/><path class="cls-1" d="M135.77,196c1.9,9.79,8.7,15.29,15.82,20.06.92,6.43-1.25,8.79-7.8,8.43a87.67,87.67,0,0,1-38.4-11.37,12.61,12.61,0,0,0-8.49-1.57c-26.46,3.69-50.73-1.66-71.66-18.78-33.06-27-33.68-72.82-1.61-101,33.19-29.12,87.68-28.1,119.75,2.23,28.39,26.85,28.17,68.85-.51,95.66C140.67,191.79,138.39,193.72,135.77,196Zm-15-7.09c2.59-1.85,5.05-3.53,7.44-5.31,29.49-22,29.89-60.42.89-83-26.41-20.52-67.66-20.42-94,.23C6.91,123,6.77,160.54,35,182.6c17.67,13.79,38,17.82,59.82,14.64,5.16-.75,9.19-.42,13.3,3a49.07,49.07,0,0,0,14.33,8c1.66.62,3.41,2.09,5.79.68C124.65,202.76,120.65,196.94,120.82,189Z"/><path class="cls-1" d="M337.53,112.86c5.73-1.28,12.06-.87,18.49-.17l2.43,5.93c8-5,16.44-8,25.88-8.09,17.11-.24,27.19,7.3,29.13,24.16a206.54,206.54,0,0,1,0,45.89c-1.84,16.8-12,24.7-29.31,25-7.51.13-14.91-1.11-23.13-2.09v35.58c-8.1,1.48-15.53.27-22.26.77-2.81-1.53-2.64-3.58-2.64-5.6q0-58.22,0-116.44C336.16,116.33,335.91,114.79,337.53,112.86Zm23.76,68.74a76.43,76.43,0,0,0,17.87,2.19c7.27-.07,9.87-2.61,9.93-10q.13-16,0-32c-.06-7.32-3.38-10.29-10.69-9.61a29.7,29.7,0,0,0-17.1,7.24Z"/><path class="cls-1" d="M592,203.26H570c-1.7-2.27-1.29-4.33-1.29-6.29,0-18,0-36,0-54,0-7.58-2-9.4-9.3-7.95a58.87,58.87,0,0,0-18.26,6.83V203c-7.71,1.48-15.39.35-22.26.69-2.67-1.42-2.72-3.23-2.72-5.13q0-59,0-117.92c0-1,.21-1.95.44-3.87,8-1.48,16-1.22,24.33-.12V118c7.33-2.69,14.06-5.47,21.29-6.45,2.63-.35,5.27-.77,7.92-.88,13.78-.54,21.56,6.2,22.95,20,1.24,12.29.45,24.63.59,36.95.11,10,0,20,0,30C593.65,199.49,594,201.58,592,203.26Z"/><path class="cls-1" d="M503,180.83a117.8,117.8,0,0,1,2.51,19.76c-5.2,2.67-10.39,3-15.43,3.64-12.93,1.72-25.87,2.41-38.63-1.23-15.53-4.42-24.13-15.22-24.34-31.28-.25-19.14-.25-38.3-.09-57.44.17-19.93,9.07-30.91,28.63-34.93,15.77-3.24,31.46-1.39,47,2.1a15.6,15.6,0,0,1,2.6,1.18,82.43,82.43,0,0,1-2.64,21c-5.64.87-10.62-.92-15.69-1.35-7-.59-13.94-1.15-20.93-.51-8.51.79-12.89,4.87-13.05,13.39q-.49,26-.1,51.94c.14,9.84,4.67,14.08,14.53,14.68,10,.61,19.94-.64,29.83-2.07C498.94,179.46,500.79,178.65,503,180.83Z"/><path class="cls-1" d="M649.92,151.77a38.2,38.2,0,0,0,0-13.55c-.94-5.13-5.22-6.08-9.5-6.36a98.82,98.82,0,0,0-24.36,1.48c-2,.36-3.91.89-6.42,0-2.18-5.45-2.43-11.51-3.19-17.73,5.68-3,11.48-3.37,17.16-4.1,9.78-1.26,19.58-1.53,29.34.29,13.15,2.45,20.86,9.74,21.79,23,1.55,22.09.63,44.27.46,66.41a7.76,7.76,0,0,1-.67,1.88c-6.12,1.6-12.5.46-17.54.65-3.11-1.22-2.61-3.43-4-4.71-9.63,4.76-19.63,7.92-30.62,6.06-8.73-1.48-14.39-6.61-17.16-14.82a40,40,0,0,1-.74-22.66c2.38-9.68,9.08-15.11,20-15.66C632.9,151.43,641.37,151.77,649.92,151.77Zm.35,18.71c-6.24,0-12-.15-17.78,0-4.68.16-4.82,3.76-4.79,7.21s.54,6.79,5.07,7.14a28.12,28.12,0,0,0,17.5-3.9Z"/><path class="cls-1" d="M695.73,132.75h-12c-2.77-6.59-.86-12.94-1.3-18.88,4.39-3,8.82-.8,13.27-2.24V90.92a115.75,115.75,0,0,1,24.1-3.32c2,8.23.2,16.23,1.21,24.28,6.63.92,13.31-.51,20.23,1a50.9,50.9,0,0,1-.19,19.73H720.67c0,4,0,7.53,0,11.11,0,10.49,0,21,0,31.47,0,8,1.5,9.42,9.39,8.75,2.46-.21,4.9-.72,8.25-1.23,3.14,5.67,2.73,12.09,3.89,18.76a48.39,48.39,0,0,1-25,3.87c-14.64-1.56-21.22-8.93-21.43-23.7-.2-14.48-.05-29-.06-43.45C695.73,136.51,695.73,134.88,695.73,132.75Z"/><path class="cls-1" d="M321.06,203.55H299.15c-1.7-1-2.1-2.48-2.1-4.28q0-39.94,0-79.87c0-1.66,0-3.31,0-5.86,8.07-3.17,16.24-1.28,24.12-1.19C323,117.9,322.82,198.82,321.06,203.55Z"/><path class="cls-1" d="M202.3.93h12.93l14.3,45.4c-3.49,1-6.53.62-9.84.43l-3.12-9.1H206.06c-.84-3.14.71-5.45,1.29-7.77,2-1.57,4.46-.11,6.65-1.47l-4.42-15L208,13.23,197.91,46.74h-10Z"/><path class="cls-1" d="M406,46.8h-9V13.08c3.1-.27,6.07-1.24,8,1.69,3.58-.84,6.92-1.86,10.34-2.38,6.07-.92,9.56,1.55,9.82,7.56.37,8.77.09,17.57.09,26.56-2.87.82-5.64.43-9,.25V22.11c-4.1-1.34-7,.28-10.25,2Z"/><path class="cls-1" d="M391.71,46.77c-3.36.11-6.15.89-8.68-1-10.85,3.35-16.51,1.92-17.75-4.89-.8-4.39-1.36-9.21,3.46-12.07,4.07-2.41,8.85-.53,13.14-1.66a7.85,7.85,0,0,0-.16-5.63c-4.43-3.08-9.32-.33-14.36-.84A14,14,0,0,1,366.12,14a33.44,33.44,0,0,1,18.73-1c4.47,1.07,6.64,4.57,6.78,8.87C391.9,30,391.71,38.16,391.71,46.77Zm-9.87-8c.48-1.27.82-2.49-.07-3.87a14.86,14.86,0,0,0-7.13.27,3.74,3.74,0,0,0,.06,4.29C377,40.35,379.18,40,381.84,38.76Z"/><path class="cls-1" d="M293,46.83c-3.35,0-6.17.92-8.61-1.05-11,3.5-16.44,1.93-18-5.28a13.1,13.1,0,0,1,.8-8.78c1.41-2.82,4-3.93,7-4s5.93,0,8.72,0c1.33-2.47.8-4.32.13-6.19-4.65-2.93-9.52-.29-14.57-.77L267,14.16c6.87-2.18,13.47-2.89,20.15-.7,4,1.31,5.64,4.71,5.75,8.54C293.12,30.11,293,38.23,293,46.83ZM276,35.07c-1.17,1.92-1.23,3.47.78,4.82,3.27-.14,7.15.6,6.95-5.23C280.69,34.78,278.28,34.29,276,35.07Z"/><path class="cls-1" d="M297.9,100.87c-1.23-8.26-.78-16-.32-24.43,8.45-.54,16.2-.92,24.34.24.37,8.21.67,15.73-.19,23.66C314,101.41,306.55,100.66,297.9,100.87Z"/><path class="cls-1" d="M346.76,13.52a13,13,0,0,1-.84,7c-4,.94-8.12-1.71-12,.09-1.39,1.18-.66,2.45-.63,3.91,3,.95,5.8,1.9,8.64,2.72,5.22,1.5,6.21,5.44,6,10.13s-1.6,8.43-6.8,9.71c-5.89,1.45-11.49.37-17.08-1.19-.7-2.47.09-4.48.62-6.82,4.38-.61,8.76,1.88,13,.3,1.15-1.3,1-2.55.38-4-1.76-1.76-4.35-1.89-6.68-2.6-4.07-1.24-7.17-3.09-7.41-8.07-.43-8.73,2.07-11.84,10.87-12.47A36.43,36.43,0,0,1,346.76,13.52Z"/><path class="cls-1" d="M319.9,13.4a15.89,15.89,0,0,1-.66,7.06c-4.17,1.16-8.54-1.9-12.59.43-1,2.11-.63,3.59,1.63,4.34,1.42.47,2.85.87,4.28,1.3,7.51,2.29,9.36,5.13,8.32,12.75-.79,5.78-4.22,8.34-11.48,8.49a31.69,31.69,0,0,1-12.25-2,9,9,0,0,1,.88-6.67c2.31-.81,4.3.64,6.43.62s4.29.54,6.38-.39c1.74-2.43.77-4.08-1.54-5.14a31.64,31.64,0,0,0-4.28-1.3c-7-2.09-8.6-4.44-8-12,.42-5.43,3-7.64,9.73-8.47C311.09,11.82,315.31,12.5,319.9,13.4Z"/><path class="cls-1" d="M248.9,46.25a18.42,18.42,0,0,1-7.65,1.52c-6.29-.11-9.22-2.82-9.38-9.08-.15-5.8,0-11.61,0-17.63l-4.45-.74c-.86-2.37-.52-4.5-.35-6.56,1.12-1.61,2.91-.47,4.58-1.46L232,5.06a21.67,21.67,0,0,1,8.49-1.23c1.31,2.66.13,5.56.83,8.43,2.1,1.44,4.8-.18,7.23,1.07.94,2.1.58,4.35.22,6.59-2.32,1.49-5,.15-7.37,1.07V38.56c2,2.05,4.08.66,6.08.91C249.07,41.36,249,43.65,248.9,46.25Z"/><path class="cls-1" d="M253.34,0H262V46.67h-8.63Z"/><path class="cls-1" d="M360.6,46.78h-8.54V13.39c2.61-1.18,5.39-.24,8.54-.67Z"/><path class="cls-1" d="M351.91,8.07A21.45,21.45,0,0,1,352,0h8.47c.89,2.63.5,5.06.32,7.63C357.77,9,354.83,8.42,351.91,8.07Z"/><path class="cls-1" d="M38.66,155c2.75-1.09,4.24.26,5.89,1.44,24.15,17.23,52.33,17.07,76-.46,2.08-1.54,4-2.53,6.14-.1,1.3,3.37-.91,5.71-2.8,7.92-9,10.52-20.76,16-34.27,17.5-19.13,2.09-36-2.92-49.14-17.65C38.46,161.33,35.61,158.66,38.66,155Z"/></g></g></svg>